<svg class="w-24 h-24 mx-auto" viewBox="0 0 100 100" fill="none" xmlns="http://www.w3.org/2000/svg">
    <path d="M50 10C55.5228 10 60 14.4772 60 20C60 25.5228 55.5228 30 50 30C44.4772 30 40 25.5228 40 20C40 14.4772 44.4772 10 50 10Z" fill="#8B5CF6"/>
    <path opacity="0.6" d="M75 30C79.4183 30 83 33.5817 83 38C83 42.4183 79.4183 46 75 46C70.5817 46 67 42.4183 67 38C67 33.5817 70.5817 30 75 30Z" fill="#8B5CF6"/>
    <path opacity="0.6" d="M25 30C29.4183 30 33 33.5817 33 38C33 42.4183 29.4183 46 25 46C20.5817 46 17 42.4183 17 38C17 33.5817 20.5817 30 25 30Z" fill="#8B5CF6"/>
    <path opacity="0.4" d="M50 70C58.2843 70 65 76.7157 65 85C65 93.2843 58.2843 100 50 100C41.7157 100 35 93.2843 35 85C35 76.7157 41.7157 70 50 70Z" fill="#34D399"/>
    <path opacity="0.7" d="M28 55C33.5228 55 38 59.4772 38 65C38 70.5228 33.5228 75 28 75C22.4772 75 18 70.5228 18 65C18 59.4772 22.4772 55 28 55Z" fill="#34D399"/>
    <path opacity="0.7" d="M72 55C77.5228 55 82 59.4772 82 65C82 70.5228 77.5228 75 72 75C66.4772 75 62 70.5228 62 65C62 59.4772 66.4772 55 72 55Z" fill="#34D399"/>
</svg>

